<svg width="440" height="122" viewBox="0 0 440 122" fill="none" xmlns="http://www.w3.org/2000/svg">
<rect x="4" y="4" width="121.933" height="114" rx="8" fill="#464646" stroke="#464646" stroke-width="8"/>
<rect x="11.0795" y="70" width="33.2386" height="41" rx="7" fill="#BFFF7F"/>
<rect x="48.5553" y="38.1067" width="33.2386" height="72.6" rx="7" fill="#FFDF7F"/>
<path d="M85.7355 20.1C85.7355 16.234 88.8695 13.1 92.7355 13.1H111.974C115.84 13.1 118.974 16.234 118.974 20.1V103.707C118.974 107.573 115.84 110.707 111.974 110.707H92.7355C88.8695 110.707 85.7355 107.573 85.7355 103.707V20.1Z" fill="#FF7F7F"/>
<path d="M191.276 24.2358H175.136V68H162.173V24.2358H146.33V14.2273H191.276V24.2358ZM230.635 68H217.708V14.2273H230.635V68ZM293.039 45.2131H272.653V58.0284H296.732V68H259.69V14.2273H296.806V24.2358H272.653V35.5739H293.039V45.2131ZM342.037 49.017H335.02V68H322.057V14.2273H343.219C349.596 14.2273 354.582 15.643 358.176 18.4744C361.771 21.3059 363.568 25.3068 363.568 30.4773C363.568 34.2197 362.805 37.322 361.279 39.7841C359.777 42.2462 357.413 44.2405 354.188 45.767L365.415 67.446V68H351.529L342.037 49.017ZM335.02 39.0085H343.219C345.681 39.0085 347.528 38.3684 348.759 37.0881C350.014 35.7831 350.642 33.9735 350.642 31.6591C350.642 29.3447 350.014 27.535 348.759 26.2301C347.503 24.9006 345.656 24.2358 343.219 24.2358H335.02V39.0085ZM419.177 53.7074C419.177 51.8116 418.5 50.3343 417.146 49.2756C415.817 48.2169 413.465 47.1212 410.092 45.9886C406.719 44.8561 403.961 43.7604 401.819 42.7017C394.852 39.2794 391.368 34.5767 391.368 28.5938C391.368 25.6146 392.229 22.9924 393.953 20.7273C395.701 18.4375 398.163 16.6648 401.339 15.4091C404.515 14.1288 408.086 13.4886 412.05 13.4886C415.915 13.4886 419.374 14.178 422.427 15.5568C425.505 16.9356 427.893 18.9053 429.592 21.4659C431.291 24.0019 432.14 26.9072 432.14 30.1818H419.214C419.214 27.9905 418.537 26.2917 417.183 25.0852C415.854 23.8788 414.044 23.2756 411.754 23.2756C409.44 23.2756 407.605 23.7926 406.251 24.8267C404.922 25.8362 404.257 27.1288 404.257 28.7045C404.257 30.0833 404.996 31.339 406.473 32.4716C407.95 33.5795 410.548 34.7367 414.265 35.9432C417.983 37.125 421.036 38.4053 423.425 39.7841C429.235 43.1326 432.14 47.7491 432.14 53.6335C432.14 58.3362 430.368 62.0294 426.822 64.7131C423.277 67.3968 418.414 68.7386 412.234 68.7386C407.876 68.7386 403.925 67.9631 400.379 66.4119C396.858 64.8362 394.199 62.6941 392.402 59.9858C390.629 57.2528 389.743 54.1136 389.743 50.5682H402.743C402.743 53.4489 403.481 55.5786 404.959 56.9574C406.461 58.3116 408.886 58.9886 412.234 58.9886C414.376 58.9886 416.063 58.5331 417.294 57.6222C418.55 56.6866 419.177 55.3816 419.177 53.7074Z" fill="white"/>
<path d="M168.623 81.1426H166.127V109.039H168.623V112.959H161.029V77.2227H168.623V81.1426ZM182.583 90.44H176.103V83.06H182.583V90.44ZM187.263 79.316H171.459V94.184H187.263V79.316ZM185.751 106.424C181.539 106.424 179.235 105.524 179.235 103.58C179.235 101.672 181.539 100.736 185.751 100.736C189.963 100.736 192.231 101.672 192.231 103.58C192.231 105.524 189.963 106.424 185.751 106.424ZM185.751 97.028C178.875 97.028 174.519 99.476 174.519 103.58C174.519 107.72 178.875 110.132 185.751 110.132C192.591 110.132 196.947 107.72 196.947 103.58C196.947 99.476 192.591 97.028 185.751 97.028ZM196.587 84.356V76.94H191.835V96.164H196.587V88.28H200.979V84.356H196.587ZM229.417 98.828C230.749 91.772 230.749 87.092 230.749 82.952V79.784H206.665V83.564H225.997C225.997 87.416 225.925 92.024 224.665 98.288L229.417 98.828ZM218.977 102.284V90.872H214.225V102.284H203.641V106.1H233.629V102.284H218.977ZM255.969 98.0879H246.072V93.9922H255.969V98.0879ZM301.369 84.32L297.769 81.368C297.013 81.62 295.789 81.764 294.421 81.764H274.441C273.217 81.764 271.237 81.584 270.301 81.44V86.48C271.057 86.408 273.001 86.228 274.441 86.228H293.485C291.793 89.18 288.409 93.356 284.341 96.596C282.073 94.616 279.697 92.672 278.257 91.592L274.441 94.652C276.601 96.2 280.273 99.44 282.361 101.564C284.701 103.94 287.725 107.324 289.237 109.34L293.449 105.992C292.045 104.3 289.921 101.96 287.869 99.908C292.945 95.804 297.553 90.044 300.145 85.832C300.433 85.364 300.865 84.896 301.369 84.32ZM311.737 79.64L308.353 83.24C310.981 85.076 315.481 89 317.353 91.016L321.025 87.272C318.937 85.076 314.257 81.332 311.737 79.64ZM307.237 103.616L310.261 108.368C315.337 107.504 319.981 105.488 323.617 103.292C329.413 99.8 334.201 94.832 336.937 89.972L334.129 84.896C331.861 89.756 327.181 95.264 321.025 98.9C317.533 100.988 312.853 102.824 307.237 103.616ZM365.953 76.94L363.001 78.164C363.901 79.424 364.981 81.332 365.665 82.808H348.313C347.053 82.808 345.217 82.736 343.849 82.592V87.596C344.857 87.524 346.801 87.452 348.313 87.452H364.513V102.356H347.881C346.261 102.356 344.641 102.248 343.417 102.14V107.288C344.569 107.18 346.621 107.072 348.025 107.072H364.477C364.477 107.756 364.477 108.368 364.441 108.944H369.661C369.553 107.864 369.481 105.956 369.481 104.696V86.048C369.481 85.004 369.553 83.564 369.589 82.736C368.977 82.772 367.501 82.808 366.421 82.808H366.277L368.761 81.764C368.113 80.432 366.853 78.236 365.953 76.94ZM370.813 75.788L367.825 77.012C368.833 78.308 369.913 80.36 370.705 81.836L373.693 80.54C373.009 79.28 371.713 77.084 370.813 75.788ZM378.373 90.332V95.984C379.705 95.876 382.117 95.804 384.169 95.804H403.501C405.013 95.804 406.849 95.948 407.713 95.984V90.332C406.777 90.404 405.193 90.548 403.501 90.548H384.169C382.297 90.548 379.669 90.44 378.373 90.332ZM411.289 77.2227H418.883V112.959H411.289V109.039H413.803V81.1426H411.289V77.2227Z" fill="#EB1751"/>
</svg>
