<svg width="942" height="122" viewBox="0 0 942 122" fill="none" xmlns="http://www.w3.org/2000/svg">
<path d="M595.938 43.5234H592.609V80.7188H595.938V85.9453H585.812V38.2969H595.938V43.5234ZM614.551 55.92H605.911V46.08H614.551V55.92ZM620.791 41.088H599.719V60.912H620.791V41.088ZM618.775 77.232C613.159 77.232 610.087 76.032 610.087 73.44C610.087 70.896 613.159 69.648 618.775 69.648C624.391 69.648 627.415 70.896 627.415 73.44C627.415 76.032 624.391 77.232 618.775 77.232ZM618.775 64.704C609.607 64.704 603.799 67.968 603.799 73.44C603.799 78.96 609.607 82.176 618.775 82.176C627.895 82.176 633.703 78.96 633.703 73.44C633.703 67.968 627.895 64.704 618.775 64.704ZM633.223 47.808V37.92H626.887V63.552H633.223V53.04H639.079V47.808H633.223ZM676.996 67.104C678.772 57.696 678.772 51.456 678.772 45.936V41.712H646.66V46.752H672.436C672.436 51.888 672.34 58.032 670.66 66.384L676.996 67.104ZM663.076 71.712V56.496H656.74V71.712H642.628V76.8H682.612V71.712H663.076ZM712.398 66.1172H699.203V60.6562H712.398V66.1172ZM772.932 47.76L768.132 43.824C767.124 44.16 765.492 44.352 763.668 44.352H737.028C735.396 44.352 732.756 44.112 731.508 43.92V50.64C732.516 50.544 735.108 50.304 737.028 50.304H762.42C760.164 54.24 755.652 59.808 750.228 64.128C747.204 61.488 744.036 58.896 742.116 57.456L737.028 61.536C739.908 63.6 744.804 67.92 747.588 70.752C750.708 73.92 754.74 78.432 756.756 81.12L762.372 76.656C760.5 74.4 757.668 71.28 754.932 68.544C761.7 63.072 767.844 55.392 771.3 49.776C771.684 49.152 772.26 48.528 772.932 47.76ZM786.756 41.52L782.243 46.32C785.748 48.768 791.748 54 794.244 56.688L799.14 51.696C796.356 48.768 790.116 43.776 786.756 41.52ZM780.756 73.488L784.788 79.824C791.556 78.672 797.748 75.984 802.596 73.056C810.324 68.4 816.708 61.776 820.356 55.296L816.612 48.528C813.588 55.008 807.348 62.352 799.14 67.2C794.484 69.984 788.244 72.432 780.756 73.488ZM859.044 37.92L855.108 39.552C856.308 41.232 857.748 43.776 858.66 45.744H835.523C833.844 45.744 831.396 45.648 829.572 45.456V52.128C830.916 52.032 833.508 51.936 835.523 51.936H857.124V71.808H834.948C832.788 71.808 830.628 71.664 828.996 71.52V78.384C830.532 78.24 833.268 78.096 835.14 78.096H857.076C857.076 79.008 857.076 79.824 857.028 80.592H863.988C863.844 79.152 863.748 76.608 863.748 74.928V50.064C863.748 48.672 863.844 46.752 863.892 45.648C863.076 45.696 861.108 45.744 859.668 45.744H859.476L862.788 44.352C861.924 42.576 860.244 39.648 859.044 37.92ZM865.524 36.384L861.54 38.016C862.884 39.744 864.324 42.48 865.38 44.448L869.364 42.72C868.452 41.04 866.724 38.112 865.524 36.384ZM875.604 55.776V63.312C877.38 63.168 880.596 63.072 883.332 63.072H909.108C911.124 63.072 913.572 63.264 914.724 63.312V55.776C913.476 55.872 911.364 56.064 909.108 56.064H883.332C880.836 56.064 877.332 55.92 875.604 55.776ZM919.492 38.2969H929.617V85.9453H919.492V80.7188H922.844V43.5234H919.492V38.2969Z" fill="#F04D79"/>
<rect x="4" y="4" width="121.933" height="114" rx="8" fill="#464646" stroke="#464646" stroke-width="8"/>
<rect x="11.0795" y="70" width="33.2386" height="41" rx="7" fill="#BFFF7F"/>
<rect x="48.5553" y="38.1067" width="33.2386" height="72.6" rx="7" fill="#FFDF7F"/>
<path d="M85.7355 20.1C85.7355 16.234 88.8695 13.1 92.7355 13.1H111.974C115.84 13.1 118.974 16.234 118.974 20.1V103.707C118.974 107.573 115.84 110.707 111.974 110.707H92.7355C88.8695 110.707 85.7355 107.573 85.7355 103.707V20.1Z" fill="#FF7F7F"/>
<path d="M212.3 35.3525H188.828V99H169.976V35.3525H146.934V20.7969H212.3V35.3525ZM262.941 99H244.142V20.7969H262.941V99ZM347.097 65.8604H317.449V84.498H352.468V99H298.596V20.7969H352.576V35.3525H317.449V51.8418H347.097V65.8604ZM411.756 71.3926H401.551V99H382.699V20.7969H413.475C422.749 20.7969 430 22.8558 435.228 26.9736C440.456 31.0915 443.07 36.9102 443.07 44.4297C443.07 49.8724 441.96 54.3841 439.74 57.9648C437.556 61.5456 434.118 64.446 429.427 66.666L445.755 98.1943V99H425.56L411.756 71.3926ZM401.551 56.8369H413.475C417.056 56.8369 419.741 55.9059 421.532 54.0439C423.358 52.1462 424.271 49.5143 424.271 46.1484C424.271 42.7826 423.358 40.1507 421.532 38.2529C419.706 36.3193 417.02 35.3525 413.475 35.3525H401.551V56.8369ZM517.344 78.2139C517.344 75.4567 516.359 73.3083 514.389 71.7686C512.456 70.2288 509.036 68.6354 504.131 66.9883C499.225 65.3411 495.215 63.7477 492.099 62.208C481.966 57.2308 476.899 50.3916 476.899 41.6904C476.899 37.3577 478.152 33.5443 480.659 30.25C483.201 26.9199 486.782 24.3418 491.401 22.5156C496.02 20.6536 501.212 19.7227 506.977 19.7227C512.599 19.7227 517.63 20.7253 522.07 22.7305C526.546 24.7357 530.019 27.6003 532.49 31.3242C534.961 35.0124 536.196 39.2376 536.196 44H517.397C517.397 40.8132 516.413 38.3424 514.443 36.5879C512.51 34.8333 509.878 33.9561 506.548 33.9561C503.182 33.9561 500.514 34.708 498.545 36.2119C496.611 37.68 495.644 39.5599 495.644 41.8516C495.644 43.8568 496.719 45.6829 498.867 47.3301C501.015 48.9414 504.793 50.6243 510.2 52.3789C515.607 54.0977 520.047 55.9596 523.52 57.9648C531.971 62.8346 536.196 69.5485 536.196 78.1064C536.196 84.9456 533.618 90.3167 528.462 94.2197C523.305 98.1227 516.234 100.074 507.246 100.074C500.908 100.074 495.161 98.9463 490.005 96.6904C484.884 94.3988 481.017 91.2835 478.403 87.3447C475.825 83.3701 474.536 78.8047 474.536 73.6484H493.442C493.442 77.8379 494.516 80.9352 496.665 82.9404C498.849 84.9098 502.376 85.8945 507.246 85.8945C510.361 85.8945 512.814 85.2321 514.604 83.9072C516.43 82.5465 517.344 80.6488 517.344 78.2139Z" fill="white"/>
</svg>
